<svg xmlns="http://www.w3.org/2000/svg" width="27" height="25" viewBox="0 0 27 25" fill="none">
<path d="M0.140747 12.5C0.140747 9.02632 1.35418 6.09023 3.78104 3.69174C6.2537 1.29324 9.32162 0.0939941 12.9848 0.0939941C15.6866 0.0939941 18.0963 0.788302 20.2138 2.17692C20.7728 2.54352 21.5704 2.16659 21.5704 1.49807V1.49807C21.5704 1.0652 21.9213 0.714294 22.3542 0.714294H24.2148C25.6752 0.714294 26.8591 1.89822 26.8591 3.35866V21.6413C26.8591 23.1018 25.6752 24.2857 24.2148 24.2857H22.335C21.9127 24.2857 21.5704 23.9434 21.5704 23.5211V23.5211C21.5704 22.8692 20.7924 22.501 20.2462 22.8569C18.1499 24.223 15.7294 24.906 12.9848 24.906C9.32162 24.906 6.2537 23.7274 3.78104 21.3703C1.35418 18.9718 0.140747 16.015 0.140747 12.5ZM19.1664 7.10339C17.6554 5.61467 15.778 4.87031 13.5343 4.87031C11.2906 4.87031 9.4132 5.61467 7.90213 7.10339C6.39107 8.55076 5.63553 10.3496 5.63553 12.5C5.63553 14.6504 6.39107 16.4699 7.90213 17.9586C9.4132 19.406 11.2906 20.1297 13.5343 20.1297C15.778 20.1297 17.6554 19.406 19.1664 17.9586C20.6775 16.4699 21.433 14.6504 21.433 12.5C21.433 10.3496 20.6775 8.55076 19.1664 7.10339Z" fill="#EAEAEA"/>
<script xmlns=""/></svg>