<svg xmlns="http://www.w3.org/2000/svg" width="31" height="35" viewBox="0 0 31 35" fill="none">
<path fill-rule="evenodd" clip-rule="evenodd" d="M19.3374 0.232544L30.8488 13.1829V32.2093C30.8488 33.6221 29.7035 34.7674 28.2907 34.7674H2.70926C1.29644 34.7674 0.151123 33.6221 0.151123 32.2093V2.79068C0.151123 1.37786 1.29644 0.232544 2.70926 0.232544H19.3374Z" fill="#F2F2F2"/>
<path d="M19.3373 13.183L30.8489 13.183L19.3373 0.232422L19.3373 13.183Z" fill="#BDBDBD"/>
<rect x="2.0697" y="17.5" width="26.8605" height="14.0298" rx="1.27907" fill="#3B82F6"/>
<path d="M9.64955 20.5755H10.908V26.1152C10.9057 26.623 10.8099 27.0603 10.6207 27.427C10.4315 27.7912 10.167 28.072 9.82737 28.2695C9.48997 28.4644 9.09672 28.5619 8.64762 28.5619C8.23727 28.5619 7.86796 28.4798 7.53968 28.3157C7.21368 28.149 6.95494 27.9028 6.76344 27.5771C6.57194 27.2513 6.4762 26.8461 6.4762 26.3614H7.73802C7.7403 26.5743 7.78133 26.7576 7.86112 26.9115C7.94319 27.0654 8.05604 27.1834 8.19966 27.2654C8.34328 27.3475 8.50856 27.3885 8.6955 27.3885C8.89839 27.3885 9.07051 27.3411 9.21185 27.2462C9.35319 27.1488 9.46034 27.0051 9.53329 26.8153C9.60852 26.6256 9.64727 26.3922 9.64955 26.1152V20.5755Z" fill="white"/>
<path d="M12.2843 28.4542V20.5755H14.9106C15.4486 20.5755 15.9 20.6883 16.2647 20.914C16.6317 21.1397 16.9087 21.45 17.0957 21.845C17.2849 22.2374 17.3795 22.6837 17.3795 23.1838C17.3795 23.689 17.2849 24.1378 17.0957 24.5302C16.9064 24.9226 16.6272 25.2317 16.2579 25.4573C15.8886 25.6805 15.4338 25.792 14.8935 25.792H13.1529V24.6187H14.7225C15.0371 24.6187 15.2947 24.5571 15.4953 24.434C15.6959 24.3109 15.8441 24.1417 15.9398 23.9262C16.0379 23.7108 16.0869 23.4633 16.0869 23.1838C16.0869 22.9042 16.0379 22.658 15.9398 22.4451C15.8441 22.2323 15.6948 22.0668 15.4919 21.9489C15.2913 21.8283 15.0325 21.7681 14.7156 21.7681H13.553V28.4542H12.2843Z" fill="white"/>
<path d="M23.1731 23.0914C23.1161 22.8837 23.0374 22.6978 22.9371 22.5336C22.8391 22.3669 22.7206 22.2246 22.5815 22.1066C22.4447 21.9886 22.2874 21.9001 22.1096 21.8412C21.9318 21.7796 21.738 21.7488 21.5283 21.7488C21.1521 21.7488 20.817 21.8553 20.5229 22.0681C20.2288 22.281 19.9974 22.5939 19.8287 23.0068C19.6623 23.4171 19.5791 23.9173 19.5791 24.5071C19.5791 25.1021 19.6623 25.6061 19.8287 26.019C19.9952 26.4319 20.2266 26.7461 20.5229 26.9615C20.8193 27.1744 21.1635 27.2808 21.5556 27.2808C21.9113 27.2808 22.219 27.2039 22.4789 27.05C22.7411 26.8961 22.9428 26.6781 23.0842 26.396C23.2255 26.1113 23.2962 25.7779 23.2962 25.3958L23.5834 25.4458H21.6822V24.3302H24.5238V25.2765C24.5238 25.951 24.3962 26.5345 24.1408 27.0269C23.8855 27.5193 23.5344 27.8989 23.0876 28.1656C22.6408 28.4298 22.1278 28.5619 21.5488 28.5619C20.9036 28.5619 20.3371 28.399 19.8493 28.0733C19.3637 27.745 18.9841 27.2796 18.7106 26.6769C18.4393 26.0716 18.3036 25.3535 18.3036 24.5225C18.3036 23.8865 18.3834 23.3184 18.543 22.8183C18.7049 22.3182 18.9305 21.8937 19.2201 21.5449C19.5096 21.1936 19.8493 20.9269 20.2391 20.7448C20.6289 20.5601 21.053 20.4678 21.5112 20.4678C21.8987 20.4678 22.2601 20.5319 22.5952 20.6601C22.9303 20.7858 23.2278 20.9653 23.4877 21.1987C23.7499 21.4321 23.9653 21.7091 24.134 22.0297C24.3027 22.3502 24.4132 22.7042 24.4657 23.0914H23.1731Z" fill="white"/>
<path d="M9.64955 20.5755H10.908V26.1152C10.9057 26.623 10.8099 27.0603 10.6207 27.427C10.4315 27.7912 10.167 28.072 9.82737 28.2695C9.48997 28.4644 9.09672 28.5619 8.64762 28.5619C8.23727 28.5619 7.86796 28.4798 7.53968 28.3157C7.21368 28.149 6.95494 27.9028 6.76344 27.5771C6.57194 27.2513 6.4762 26.8461 6.4762 26.3614H7.73802C7.7403 26.5743 7.78133 26.7576 7.86112 26.9115C7.94319 27.0654 8.05604 27.1834 8.19966 27.2654C8.34328 27.3475 8.50856 27.3885 8.6955 27.3885C8.89839 27.3885 9.07051 27.3411 9.21185 27.2462C9.35319 27.1488 9.46034 27.0051 9.53329 26.8153C9.60852 26.6256 9.64727 26.3922 9.64955 26.1152V20.5755Z" stroke="white" stroke-width="0.479651"/>
<path d="M12.2843 28.4542V20.5755H14.9106C15.4486 20.5755 15.9 20.6883 16.2647 20.914C16.6317 21.1397 16.9087 21.45 17.0957 21.845C17.2849 22.2374 17.3795 22.6837 17.3795 23.1838C17.3795 23.689 17.2849 24.1378 17.0957 24.5302C16.9064 24.9226 16.6272 25.2317 16.2579 25.4573C15.8886 25.6805 15.4338 25.792 14.8935 25.792H13.1529V24.6187H14.7225C15.0371 24.6187 15.2947 24.5571 15.4953 24.434C15.6959 24.3109 15.8441 24.1417 15.9398 23.9262C16.0379 23.7108 16.0869 23.4633 16.0869 23.1838C16.0869 22.9042 16.0379 22.658 15.9398 22.4451C15.8441 22.2323 15.6948 22.0668 15.4919 21.9489C15.2913 21.8283 15.0325 21.7681 14.7156 21.7681H13.553V28.4542H12.2843Z" stroke="white" stroke-width="0.479651"/>
<path d="M23.1731 23.0914C23.1161 22.8837 23.0374 22.6978 22.9371 22.5336C22.8391 22.3669 22.7206 22.2246 22.5815 22.1066C22.4447 21.9886 22.2874 21.9001 22.1096 21.8412C21.9318 21.7796 21.738 21.7488 21.5283 21.7488C21.1521 21.7488 20.817 21.8553 20.5229 22.0681C20.2288 22.281 19.9974 22.5939 19.8287 23.0068C19.6623 23.4171 19.5791 23.9173 19.5791 24.5071C19.5791 25.1021 19.6623 25.6061 19.8287 26.019C19.9952 26.4319 20.2266 26.7461 20.5229 26.9615C20.8193 27.1744 21.1635 27.2808 21.5556 27.2808C21.9113 27.2808 22.219 27.2039 22.4789 27.05C22.7411 26.8961 22.9428 26.6781 23.0842 26.396C23.2255 26.1113 23.2962 25.7779 23.2962 25.3958L23.5834 25.4458H21.6822V24.3302H24.5238V25.2765C24.5238 25.951 24.3962 26.5345 24.1408 27.0269C23.8855 27.5193 23.5344 27.8989 23.0876 28.1656C22.6408 28.4298 22.1278 28.5619 21.5488 28.5619C20.9036 28.5619 20.3371 28.399 19.8493 28.0733C19.3637 27.745 18.9841 27.2796 18.7106 26.6769C18.4393 26.0716 18.3036 25.3535 18.3036 24.5225C18.3036 23.8865 18.3834 23.3184 18.543 22.8183C18.7049 22.3182 18.9305 21.8937 19.2201 21.5449C19.5096 21.1936 19.8493 20.9269 20.2391 20.7448C20.6289 20.5601 21.053 20.4678 21.5112 20.4678C21.8987 20.4678 22.2601 20.5319 22.5952 20.6601C22.9303 20.7858 23.2278 20.9653 23.4877 21.1987C23.7499 21.4321 23.9653 21.7091 24.134 22.0297C24.3027 22.3502 24.4132 22.7042 24.4657 23.0914H23.1731Z" stroke="white" stroke-width="0.479651"/>
<script xmlns=""/></svg>