<svg xmlns="http://www.w3.org/2000/svg" width="31" height="35" viewBox="0 0 31 35" fill="none">
<path fill-rule="evenodd" clip-rule="evenodd" d="M30.8488 13.1831L19.3372 0.232547H2.06973C1.01011 0.232547 0.151123 1.09153 0.151123 2.15115V32.8488C0.151123 33.9084 1.01011 34.7674 2.06973 34.7674H28.9302C29.9898 34.7674 30.8488 33.9084 30.8488 32.8488L30.8488 0.232544L30.8488 13.1831Z" fill="#F2F2F2"/>
<path d="M19.3372 13.1831L30.8488 13.1831L19.3372 0.232544L19.3372 13.1831Z" fill="#BDBDBD"/>
<rect x="2.0697" y="17.5" width="26.8605" height="14.0298" rx="1.05526" fill="#EF4444"/>
<path d="M6.59338 28.5619V20.4678H9.24224C9.78488 20.4678 10.2402 20.5837 10.6081 20.8156C10.9782 21.0474 11.2576 21.3662 11.4462 21.772C11.637 22.1751 11.7324 22.6336 11.7324 23.1474C11.7324 23.6664 11.637 24.1275 11.4462 24.5306C11.2553 24.9338 10.9736 25.2513 10.6012 25.4831C10.2287 25.7123 9.76994 25.827 9.22499 25.827H7.46944V24.6215H9.05254C9.36985 24.6215 9.62968 24.5583 9.83202 24.4318C10.0344 24.3054 10.1838 24.1315 10.2804 23.9101C10.3793 23.6888 10.4287 23.4346 10.4287 23.1474C10.4287 22.8602 10.3793 22.6072 10.2804 22.3885C10.1838 22.1699 10.0332 21.9999 9.82857 21.8787C9.62623 21.7549 9.36525 21.693 9.04564 21.693H7.87297V28.5619H6.59338Z" fill="white"/>
<path d="M15.2375 28.5619H12.8439V20.4678H15.2858C15.9871 20.4678 16.5895 20.6298 17.0931 20.9539C17.5989 21.2753 17.9875 21.7377 18.2589 22.3411C18.5302 22.9445 18.6658 23.6664 18.6658 24.5069C18.6658 25.3501 18.529 26.0746 18.2554 26.6806C17.9841 27.2866 17.592 27.7517 17.0793 28.0758C16.5688 28.3998 15.9549 28.5619 15.2375 28.5619ZM14.1235 27.2932H15.1754C15.6675 27.2932 16.0779 27.1905 16.4067 26.985C16.7355 26.7768 16.9827 26.4672 17.1483 26.0562C17.3138 25.6425 17.3966 25.1261 17.3966 24.5069C17.3966 23.8877 17.3138 23.374 17.1483 22.9656C16.9827 22.5545 16.7378 22.2476 16.4136 22.0447C16.0917 21.8392 15.6916 21.7364 15.2134 21.7364H14.1235V27.2932Z" fill="white"/>
<path d="M19.8816 28.5619V20.4678H24.4067V21.6969H21.1612V23.8943H24.0963V25.1235H21.1612V28.5619H19.8816Z" fill="white"/>
<path d="M6.59338 28.5619V20.4678H9.24224C9.78488 20.4678 10.2402 20.5837 10.6081 20.8156C10.9782 21.0474 11.2576 21.3662 11.4462 21.772C11.637 22.1751 11.7324 22.6336 11.7324 23.1474C11.7324 23.6664 11.637 24.1275 11.4462 24.5306C11.2553 24.9338 10.9736 25.2513 10.6012 25.4831C10.2287 25.7123 9.76994 25.827 9.22499 25.827H7.46944V24.6215H9.05254C9.36985 24.6215 9.62968 24.5583 9.83202 24.4318C10.0344 24.3054 10.1838 24.1315 10.2804 23.9101C10.3793 23.6888 10.4287 23.4346 10.4287 23.1474C10.4287 22.8602 10.3793 22.6072 10.2804 22.3885C10.1838 22.1699 10.0332 21.9999 9.82857 21.8787C9.62623 21.7549 9.36525 21.693 9.04564 21.693H7.87297V28.5619H6.59338Z" stroke="white" stroke-width="0.479651"/>
<path d="M15.2375 28.5619H12.8439V20.4678H15.2858C15.9871 20.4678 16.5895 20.6298 17.0931 20.9539C17.5989 21.2753 17.9875 21.7377 18.2589 22.3411C18.5302 22.9445 18.6658 23.6664 18.6658 24.5069C18.6658 25.3501 18.529 26.0746 18.2554 26.6806C17.9841 27.2866 17.592 27.7517 17.0793 28.0758C16.5688 28.3998 15.9549 28.5619 15.2375 28.5619ZM14.1235 27.2932H15.1754C15.6675 27.2932 16.0779 27.1905 16.4067 26.985C16.7355 26.7768 16.9827 26.4672 17.1483 26.0562C17.3138 25.6425 17.3966 25.1261 17.3966 24.5069C17.3966 23.8877 17.3138 23.374 17.1483 22.9656C16.9827 22.5545 16.7378 22.2476 16.4136 22.0447C16.0917 21.8392 15.6916 21.7364 15.2134 21.7364H14.1235V27.2932Z" stroke="white" stroke-width="0.479651"/>
<path d="M19.8816 28.5619V20.4678H24.4067V21.6969H21.1612V23.8943H24.0963V25.1235H21.1612V28.5619H19.8816Z" stroke="white" stroke-width="0.479651"/>
<script xmlns=""/></svg>