<svg width="380" height="377" xmlns="http://www.w3.org/2000/svg" xmlns:svg="http://www.w3.org/2000/svg">
 <defs>
  <linearGradient id="paint0_linear_1_15" x1="0.28" x2="0.77" y1="0.87" y2="0.23">
   <stop stop-color="#735FFA"/>
   <stop offset="1" stop-color="#BE87FF"/>
  </linearGradient>
  <linearGradient id="paint1_linear_1_15" x1="0.17" x2="0.58" y1="0.02" y2="0.84">
   <stop stop-color="#735FFA"/>
   <stop offset="1" stop-color="#BE87FF"/>
  </linearGradient>
  <linearGradient id="paint2_linear_1_15" x1="-0.1" x2="0.8" y1="0.91" y2="-0.02">
   <stop stop-color="#735FFA"/>
   <stop offset="1" stop-color="#BE87FF"/>
  </linearGradient>
 </defs>
 <g class="layer">
  <title>Layer 1</title>
  <g id="svg_11">
   <path d="m214.52,162.05c14.71,0 26.63,11.92 26.63,26.63l0,158.15c0,13.77 -10.07,25.49 -23.68,27.51c-8.99,1.34 -18.19,2.04 -27.54,2.05c-104.18,0.17 -189.11,-85.43 -188.14,-189.61c0.42,-45.54 17.05,-87.2 44.39,-119.51c9.42,-11.13 27.63,-4.41 27.63,10.17l0,108.9c0,33.16 26.88,60.03 60.03,60.03c29.85,0 54.04,-24.2 54.04,-54.04l0,-3.67c0.01,-14.69 11.93,-26.61 26.64,-26.61z" fill="url(#paint0_linear_1_15)" id="svg_8"/>
   <path d="m130.85,216.67c-15.08,0 -27.31,-12.23 -27.31,-27.31l0,-121.78c0,-31.41 22.4,-58.57 53.34,-64.01c10.63,-1.87 21.57,-2.84 32.74,-2.84c67.98,0 127.52,36.11 160.49,90.2c11.06,18.14 -2.16,41.4 -23.41,41.4l-124.59,0c-24.27,0 -43.94,19.67 -43.94,43.94l0,13.09c-0.01,15.08 -12.24,27.31 -27.32,27.31z" fill="url(#paint1_linear_1_15)" id="svg_9"/>
   <path d="m377.45,188.56c0,59.49 -27.66,112.52 -70.82,146.93c-14.34,11.43 -35.55,1.05 -35.55,-17.29l0,-119.06c0,-20.48 16.6,-37.09 37.09,-37.09l47.24,0c11.91,0 21.66,9.49 21.98,21.4c0.03,1.7 0.06,3.4 0.06,5.11z" fill="url(#paint2_linear_1_15)" id="svg_10"/>
  </g>
 </g>
</svg>