<?xml version="1.0" standalone="no"?>
<!DOCTYPE svg PUBLIC "-//W3C//DTD SVG 20010904//EN"
 "http://www.w3.org/TR/2001/REC-SVG-20010904/DTD/svg10.dtd">
<svg version="1.0" xmlns="http://www.w3.org/2000/svg"
 width="512.000000pt" height="512.000000pt" viewBox="0 0 512.000000 512.000000"
 preserveAspectRatio="xMidYMid meet">
<metadata>
Created by potrace 1.16, written by Peter Selinger 2001-2019
</metadata>
<g transform="translate(0.000000,512.000000) scale(0.100000,-0.100000)"
fill="#000000" stroke="none">
<path fill="#715de2" d="M2464 5101 c-51 -23 -99 -81 -113 -137 -14 -56 -14 -272 0 -328 23
-93 107 -156 209 -156 102 0 186 63 209 156 14 56 14 272 0 328 -23 93 -107
156 -209 156 -32 0 -72 -8 -96 -19z"/>
<path fill="#715de2" d="M2496 4050 c-75 -24 -140 -99 -151 -174 -3 -22 -5 -630 -3 -1351 3
-1445 -2 -1332 64 -1399 47 -46 83 -60 154 -60 71 0 107 14 154 60 66 67 61
-51 61 1434 0 1233 -1 1348 -17 1375 -21 39 -65 83 -101 102 -36 18 -122 26
-161 13z"/>
<path fill="#715de2" d="M109 3817 c-24 -13 -57 -43 -74 -66 l-30 -43 -3 -1137 -2 -1137 23
-45 c36 -68 93 -103 176 -107 103 -6 171 34 212 123 18 38 19 95 19 1155 0
1060 -1 1117 -19 1155 -38 83 -105 125 -198 125 -43 0 -72 -6 -104 -23z"/>
<path fill="#715de2" d="M4813 3824 c-45 -23 -83 -62 -104 -109 -18 -38 -19 -95 -19 -1155 0
-1060 1 -1117 19 -1155 41 -89 109 -129 212 -123 83 4 140 39 176 107 l23 44
0 1127 0 1127 -23 44 c-13 24 -43 57 -66 74 -36 25 -53 30 -114 33 -52 2 -81
-2 -104 -14z"/>
<path fill="#715de2" d="M1725 3611 c-48 -22 -87 -60 -109 -105 -14 -30 -16 -132 -16 -946 0
-814 2 -916 16 -946 78 -165 318 -165 395 1 18 38 19 85 19 945 0 860 -1 907
-19 945 -49 107 -179 155 -286 106z"/>
<path fill="#715de2" d="M3215 3611 c-22 -10 -52 -31 -67 -47 -61 -65 -58 -19 -58 -1006 0
-858 1 -905 19 -943 77 -166 317 -166 395 -1 14 30 16 132 16 946 0 999 3 944
-58 1006 -62 62 -169 81 -247 45z"/>
<path fill="#715de2" d="M973 3184 c-45 -23 -83 -62 -104 -109 -17 -37 -19 -75 -19 -515 0
-440 2 -478 19 -515 41 -89 109 -129 212 -123 83 4 140 39 176 107 l23 44 0
487 0 487 -23 44 c-13 24 -43 57 -66 74 -36 25 -53 30 -114 33 -52 2 -81 -2
-104 -14z"/>
<path fill="#715de2" d="M3949 3177 c-24 -13 -57 -43 -74 -66 l-30 -43 -3 -497 -3 -497 24
-44 c36 -69 93 -104 176 -108 103 -6 171 34 212 123 17 37 19 75 19 515 0 440
-2 478 -19 515 -38 83 -105 125 -198 125 -43 0 -72 -6 -104 -23z"/>
<path fill="#715de2" d="M2464 621 c-51 -23 -99 -81 -113 -137 -6 -23 -11 -97 -11 -164 0
-143 11 -195 53 -245 82 -100 252 -100 334 0 42 50 53 102 53 245 0 143 -11
195 -53 245 -59 72 -174 96 -263 56z"/>
</g>
</svg>
