<svg xmlns="http://www.w3.org/2000/svg" width="36" height="37" viewBox="0 0 36 37" fill="none">
<rect y="0.5" width="36" height="36" rx="18" fill="white"/>
<path d="M8 26.6032C8.58824 26.6032 9.47059 25.3679 10.5 25.1914C11.0882 25.1914 11.5294 26.4267 13 26.6032C14.0294 26.6032 14.4706 25.3679 15.5 25.3679C16.5294 25.3679 16.9706 26.6032 18 26.6032C19.0294 26.6032 19.4706 25.3679 20.5 25.3679C21.5294 25.3679 21.9706 26.6032 23 26.6032C24.0294 26.6032 24.4706 25.3679 25.5 25.3679C26.5294 25.3679 26.9706 26.6032 28 26.6032" stroke="black" stroke-linecap="round" stroke-linejoin="round"/>
<path d="M10.0118 25.3746L9.33826 24.0864L26.6912 22.9688C25.3265 24.2099 23.5736 25.2158 21.8 26.0393" stroke="black" stroke-linecap="round" stroke-linejoin="round"/>
<path d="M16.2471 12.0859C19.2 12.9889 23.3294 17.3506 24.7353 22.0389C23.9647 21.7359 23.3882 21.4271 22.3059 21.7036C21.2588 17.8948 19.3853 14.2565 16.2471 12.0859Z" stroke="black" stroke-linecap="round" stroke-linejoin="round"/>
<path d="M10.7559 10C14.5382 11.6176 19.7265 16.1206 20.6794 22.1176C16.3177 20.3588 12.9971 21.2971 10.6853 22.7235C14.2118 18.2412 12.6294 13.1441 10.7559 10Z" stroke="black" stroke-linecap="round" stroke-linejoin="round"/>
<script xmlns=""/></svg>