<svg xmlns="http://www.w3.org/2000/svg" width="252" height="252" viewBox="0 0 252 252" fill="none">
<circle cx="126" cy="126" r="126" fill="black"/>
<rect x="57" y="57" width="137" height="137" fill="white"/>
<path d="M97.3601 78.4004C89.5202 78.4004 83.1401 84.7804 83.1401 92.6204V158.98C83.1401 166.82 89.5202 173.2 97.3601 173.2C105.2 173.2 111.58 166.82 111.58 158.98V92.6204C111.58 84.7804 105.2 78.4004 97.3601 78.4004Z" fill="black"/>
<path d="M121.06 106.84H158.98C166.82 106.84 173.2 100.46 173.2 92.6204C173.2 84.7804 166.82 78.4004 158.98 78.4004H116.197C119.207 82.3725 121.06 87.2642 121.06 92.6204V106.84Z" fill="black"/>
<path d="M86 31C55.6243 31 31 55.6243 31 86V165.6C31 195.976 55.6243 220.6 86 220.6H165.6C195.976 220.6 220.6 195.976 220.6 165.6V86C220.6 55.6243 195.976 31 165.6 31H86ZM175.745 175.584C171.124 180.206 165.057 182.514 158.989 182.514C152.922 182.514 146.85 180.206 142.234 175.584L124.291 157.642C123.099 156.449 121.06 157.294 121.06 158.98V158.98C121.06 172.048 110.428 182.68 97.36 182.68C84.2918 182.68 73.66 172.048 73.66 158.98V92.62C73.66 79.5518 84.2918 68.92 97.36 68.92H158.98C172.048 68.92 182.68 79.5518 182.68 92.62C182.68 105.688 172.048 116.32 158.98 116.32V116.32C156.92 116.32 155.808 118.735 157.147 120.3L175.997 142.333C184.984 151.306 184.984 166.346 175.745 175.584Z" fill="black"/>
<path d="M141.267 116.32H121.06V141.177C121.221 141.3 121.416 141.362 121.563 141.513L148.931 168.882C154.477 174.428 163.493 174.428 169.038 168.882C174.584 163.336 174.584 154.316 169.038 148.77L141.267 116.32Z" fill="black"/>
</svg>