<svg xmlns="http://www.w3.org/2000/svg" width="36" height="36" viewBox="0 0 36 36" fill="none">
<circle cx="18" cy="18" r="18" fill="white"/>
<path d="M12.7975 27.8246C17.4416 27.8246 20.4622 25.3793 20.4622 21.7007C20.4622 18.848 18.625 17.0352 15.3401 16.2845L13.2311 15.6556C11.381 15.2427 10.3011 14.7469 10.5555 13.4803C10.7672 12.4266 11.4004 11.8317 12.873 11.8317C17.5542 11.8317 19.2886 13.4803 19.2886 13.4803V9.51518C19.2886 9.51518 17.6 8 12.873 8C8.41761 8 6 10.2791 6 13.8075C6 16.6602 7.67541 18.3193 11.0736 19.1075C11.3114 19.1666 11.4329 19.197 11.4382 19.1986C11.9551 19.3577 12.6526 19.5678 13.5307 19.829C15.2675 20.2419 15.7141 20.6801 15.7141 21.9939C15.7141 23.1951 14.4588 23.8778 12.7975 23.8778C8.01168 23.8778 6 21.471 6 21.471V25.864C6 25.864 7.25801 27.8246 12.7975 27.8246Z" fill="url(#paint0_linear_4001_1918)"/>
<path d="M27.1604 27.5268C28.8045 27.5268 30.0287 26.3444 30.0287 24.7448C30.0287 23.1104 28.8394 21.9629 27.1604 21.9629C25.5164 21.9629 24.3271 23.1104 24.3271 24.7448C24.3271 26.3792 25.5164 27.5268 27.1604 27.5268Z" fill="#E80000"/>
<defs>
<linearGradient id="paint0_linear_4001_1918" x1="729.109" y1="8" x2="729.109" y2="1990.46" gradientUnits="userSpaceOnUse">
<stop stop-color="#9D39FF"/>
<stop offset="1" stop-color="#A380FF"/>
</linearGradient>
</defs>
</svg>