<svg xmlns="http://www.w3.org/2000/svg" viewBox="0 0 512 512">
  <!-- Фон -->
  <circle fill="#4285F4" cx="256" cy="256" r="256"/>
  
  <!-- Белая палитра -->
  <path d="M256 128C176.5 128 112 192.5 112 272c0 79.5 64.5 144 144 144 13.6 0 24-10.4 24-24 0-6.4-2.4-12-6.4-16-4-4-6.4-9.6-6.4-16 0-13.6 10.4-24 24-24h28.8c44 0 80-36 80-80 0-70.4-64.5-128-144-128zM170.5 272c-13.6 0-24-10.4-24-24s10.4-24 24-24 24 10.4 24 24-10.4 24-24 24zm48-64c-13.6 0-24-10.4-24-24s10.4-24 24-24 24 10.4 24 24-10.4 24-24 24zm80 0c-13.6 0-24-10.4-24-24s10.4-24 24-24 24 10.4 24 24-10.4 24-24 24zm48 64c-13.6 0-24-10.4-24-24s10.4-24 24-24 24 10.4 24 24-10.4 24-24 24z" fill="white"/>
  
  <!-- Цветные круги -->
  <circle cx="170.5" cy="248" r="24" fill="#DB4437"/>
  <circle cx="218.5" cy="184" r="24" fill="#F4B400"/>
  <circle cx="298.5" cy="184" r="24" fill="#0F9D58"/>
  <circle cx="346.5" cy="248" r="24" fill="#4285F4"/>
</svg>